<?xml version="1.0" encoding="utf-8"?>
<!-- Generator: Adobe Illustrator 24.1.2, SVG Export Plug-In . SVG Version: 6.00 Build 0)  -->
<svg version="1.1" id="Layer_1" xmlns="http://www.w3.org/2000/svg" xmlns:xlink="http://www.w3.org/1999/xlink" x="0px" y="0px"
	 viewBox="0 0 3760 3050.7" style="enable-background:new 0 0 3760 3050.7;" xml:space="preserve">
<style type="text/css">
	.st0{display:none;}
	.st1{display:inline;}
	.st2{fill:#FFFFFF;}
	.st3{fill:#ECF3FE;}
	.st4{fill:#DFE5EA;}
	.st5{fill:#5B97EF;}
	.st6{fill:#E4ECF9;}
	.st7{fill:#3B82F4;}
	.st8{opacity:0.29;fill:#474747;}
	.st9{fill:#F4B545;}
	.st10{opacity:0.1;fill:#232323;}
	.st11{fill:#46C1AA;}
	.st12{fill:#52D1BD;}
	.st13{fill:#3CAF99;}
	.st14{fill:#727272;}
	.st15{fill:#302F2F;}
	.st16{fill:#F4B698;}
	.st17{opacity:0.28;}
	.st18{fill:#E29586;}
	.st19{fill:#565656;}
	.st20{opacity:0.2;fill:#363636;}
	.st21{fill:#EEEEEE;}
	.st22{fill:#FFDCA4;}
	.st23{fill:#E09F36;}
	.st24{fill:#F4CB95;}
	.st25{fill:#D8A471;}
	.st26{fill:#EDC28E;}
	.st27{fill:#E5B67F;}
	.st28{fill:#CC8E2B;}
	.st29{fill:#E29D2D;}
	.st30{fill:#4786D1;}
</style>
<g>
	<g class="st0">
		<g class="st1">
			<g>
				<g>
					<rect x="-719.7" y="-545" class="st2" width="5000" height="4000"/>
				</g>
			</g>
		</g>
	</g>
	<g>
		<g>
			<path class="st3" d="M1265.9,645.9c29.4-62.8,66.6-123.4,113.4-180.6C1746.6,15.8,2468.6,53.7,2891.9,416
				c469.5,401.8,426.1,1078,416.5,1193.6c-33.4,402-242.1,1056.2-722.1,1189.5c-223,61.9-435.8-7.7-621.4-136.9
				c-146.6-102-339.9-92.5-479.8,27.1c-52.9,45.2-111.9,83.5-177.5,110.5c-148.3,61.3-280.4,44.9-337.6,37
				c-445.9-61.1-881.4-568.7-877.3-1043.4C97.3,1248.8,680.3,831,1265.9,645.9z"/>
			<g>
				<path class="st4" d="M2916.5,1364.6v1070.9c0,1.3-0.1,2.6-0.1,4c0,0.6-0.1,1.2-0.1,1.9c0,0.6-0.1,1.2-0.1,1.8
					c0,0.2-0.1,0.5-0.1,0.7c-0.1,0.4-0.1,0.8-0.2,1.2c-0.1,0.9-0.2,1.9-0.4,2.8c-0.1,0.9-0.3,1.8-0.5,2.7c-0.1,0.4-0.2,0.9-0.3,1.3
					c0,0.3-0.1,0.7-0.2,1c-0.1,0.4-0.2,0.9-0.3,1.3c-0.2,0.8-0.4,1.6-0.6,2.4c0,0.1-0.1,0.3-0.1,0.4c-0.4,1.4-0.8,2.7-1.3,4
					c0,0.1,0,0.1-0.1,0.2c-0.2,0.7-0.5,1.4-0.7,2c-0.2,0.6-0.5,1.2-0.7,1.7c-0.1,0.2-0.2,0.4-0.2,0.5c-0.7,1.7-1.5,3.4-2.4,5
					c-0.2,0.5-0.6,1.1-0.9,1.7c-0.3,0.6-0.6,1.1-0.9,1.6c-0.3,0.5-0.6,1.1-0.9,1.6c-0.6,1.1-1.3,2.1-2,3.1c-0.4,0.7-0.9,1.2-1.2,1.9
					c-1.1,1.4-2,2.7-3.2,4c-0.8,1-1.6,1.9-2.4,2.8c-0.8,0.9-1.7,1.8-2.5,2.7c-0.4,0.4-0.8,0.8-1.2,1.2c-0.4,0.4-0.7,0.7-1.2,1.1
					c-0.4,0.4-0.9,0.9-1.4,1.3c-0.1,0.1-0.3,0.2-0.4,0.4c-1.2,1.1-2.4,2-3.7,3c-0.1,0.1-0.2,0.2-0.4,0.3c-1,0.7-2,1.4-3,2.1
					c-0.4,0.2-0.7,0.5-1,0.7c-0.6,0.4-1.1,0.7-1.7,1.1c-0.4,0.3-0.9,0.6-1.4,0.8c-0.5,0.3-1,0.6-1.5,0.9c-3.5,2-7.1,3.7-10.9,5
					c-0.2,0.1-0.4,0.2-0.7,0.2c-0.2,0.1-0.6,0.2-0.8,0.2c-0.9,0.3-1.7,0.6-2.7,0.9c-1.6,0.5-3.1,0.9-4.7,1.2
					c-0.8,0.2-1.6,0.4-2.4,0.6c-0.5,0.1-1.1,0.2-1.6,0.2c-0.6,0.1-1.3,0.2-1.9,0.4c-0.1,0-0.2,0-0.2,0.1c-0.5,0.1-1,0.1-1.6,0.2
					c-0.2,0-0.5,0.1-0.7,0.1c-0.4,0.1-0.9,0.1-1.4,0.2c-0.2,0-0.5,0.1-0.8,0.1c-0.9,0.1-1.9,0.1-2.9,0.2c-1.4,0.1-2.7,0.1-4.1,0.1
					H947.9c-1.4,0-2.7-0.1-4.1-0.1c-0.9-0.1-1.9-0.1-2.9-0.2c-1.1-0.1-2.1-0.2-3.2-0.4c-0.6-0.1-1.2-0.1-1.8-0.2
					c-1.5-0.2-3-0.5-4.4-0.8c-0.4-0.1-0.8-0.2-1.2-0.3c-1.6-0.4-3.1-0.7-4.7-1.2c-0.9-0.3-1.8-0.6-2.7-0.9c-4.2-1.4-8.2-3.2-12-5.3
					c-0.9-0.6-1.9-1.1-2.8-1.7c-1.1-0.6-2.1-1.3-3.1-2c-6.1-4.2-11.6-9.1-16.3-14.8c-1.1-1.3-2.2-2.7-3.2-4.1
					c-3.4-4.7-6.3-9.8-8.5-15.3c-0.5-1.2-1-2.6-1.5-3.9c-0.5-1.3-0.9-2.7-1.3-4c-0.4-1.4-0.7-2.7-1.1-4.1c-0.3-1.3-0.6-2.5-0.8-3.8
					c-0.1-0.2-0.1-0.4-0.1-0.6c-0.2-1.2-0.4-2.5-0.5-3.8c-0.1-0.1-0.1-0.2-0.1-0.3c-0.1-1-0.2-1.9-0.2-2.9c-0.2-1.9-0.2-3.8-0.2-5.8
					V1364.6c0-9.2,1.6-18,4.6-26.2c4.7-13,12.8-24.3,23.3-32.9c0.1-0.1,0.3-0.2,0.5-0.4l4-3c12.5-8.9,27.7-14.1,44.2-14.1h1891.9
					c1.9,0,3.7,0.1,5.5,0.2c0.3-0.1,0.7,0,1,0.1c1.7,0.1,3.5,0.3,5.2,0.6c0.4,0.1,0.8,0.1,1.2,0.2c1.5,0.2,3,0.6,4.4,0.9
					c0.4,0.1,0.7,0.1,1.1,0.2c1.8,0.4,3.5,0.9,5.3,1.5c1.6,0.5,3.3,1.1,4.8,1.7c2.2,0.9,4.4,1.9,6.5,3c1.2,0.6,2.4,1.2,3.5,1.9
					c2,1.1,3.9,2.4,5.7,3.7c0.1-0.1,0.1,0,0.1,0l4,3c0.2,0.1,0.4,0.2,0.5,0.4c1.1,0.8,2,1.7,2.9,2.5c0.7,0.6,1.4,1.3,2.1,2
					c2.1,2,4.1,4.2,6,6.6c0.9,1.1,1.7,2.1,2.4,3.2c3.2,4.4,6,9.2,8.1,14.3c0.6,1.4,1.2,2.8,1.7,4.2c0,0.1,0.1,0.1,0.1,0.2
					c0.9,2.3,1.6,4.7,2.2,7c0.3,1.2,0.6,2.3,0.8,3.5c0.2,0.9,0.4,1.8,0.5,2.7c0.2,0.9,0.3,1.9,0.4,2.8c0.2,1.1,0.3,2.2,0.4,3.3
					c0.1,0.9,0.2,1.9,0.2,2.9C2916.4,1361.9,2916.5,1363.3,2916.5,1364.6z"/>
				<path class="st5" d="M2911.9,1338.4h-2036c4.7-13,12.8-24.3,23.3-32.9c0.1-0.1,0.3-0.2,0.5-0.4l4-3L1847,586
					c27.7-21.1,66.1-21.1,93.9,0l943.2,716c0.1-0.1,0.1,0,0.1,0l4,3c0.2,0.1,0.4,0.2,0.5,0.4c1.1,0.8,2,1.7,2.9,2.5
					c0.7,0.6,1.4,1.3,2.1,2c2.1,2,4.1,4.2,6,6.6c0.9,1.1,1.7,2.1,2.4,3.2c3.2,4.4,6,9.2,8.1,14.3c0.6,1.4,1.2,2.8,1.7,4.2
					C2911.9,1338.3,2911.9,1338.3,2911.9,1338.4z"/>
				<path class="st2" d="M2769.7,2456.3H992.9V844.2c0-75.7,61.4-137.1,137.1-137.1h1502.4c75.7,0,137.1,61.4,137.1,137.1V2456.3z"
					/>
				<path class="st6" d="M2534.1,1094.1H1228.5c-18.3,0-33.3-15-33.3-33.3v-14.1c0-18.3,15-33.3,33.3-33.3h1305.5
					c18.3,0,33.3,15,33.3,33.3v14.1C2567.3,1079.1,2552.4,1094.1,2534.1,1094.1z"/>
				<path class="st6" d="M2534.1,1266.4H1228.5c-18.3,0-33.3-15-33.3-33.3V1219c0-18.3,15-33.3,33.3-33.3h1305.5
					c18.3,0,33.3,15,33.3,33.3v14.1C2567.3,1251.4,2552.4,1266.4,2534.1,1266.4z"/>
				<path class="st6" d="M2534.1,1438.7H1228.5c-18.3,0-33.3-15-33.3-33.3v-14.1c0-18.3,15-33.3,33.3-33.3h1305.5
					c18.3,0,33.3,15,33.3,33.3v14.1C2567.3,1423.7,2552.4,1438.7,2534.1,1438.7z"/>
				<path class="st6" d="M2534.1,1611H1228.5c-18.3,0-33.3-15-33.3-33.3v-14.1c0-18.3,15-33.3,33.3-33.3h1305.5
					c18.3,0,33.3,15,33.3,33.3v14.1C2567.3,1596,2552.4,1611,2534.1,1611z"/>
				<path class="st6" d="M2534.1,1783.3H1228.5c-18.3,0-33.3-15-33.3-33.3v-14.1c0-18.3,15-33.3,33.3-33.3h1305.5
					c18.3,0,33.3,15,33.3,33.3v14.1C2567.3,1768.3,2552.4,1783.3,2534.1,1783.3z"/>
				<path class="st7" d="M1893.9,1928.7L1893.9,1928.7c-3,3.3-6.5,6.3-10.5,8.7l-931.2,574.6h-4.2c-7.8,0-15.2-1.1-22.2-3.3
					c-1-0.3-2-0.6-2.9-0.9c-12.2-4.2-23.1-11.5-31.6-20.9c-0.8-0.9-1.6-1.8-2.4-2.8c-2.4-2.8-4.5-5.8-6.4-9
					c-0.7-1.1-1.2-2.1-1.9-3.2c-0.6-1.1-1.2-2.2-1.7-3.4c-4.8-10.1-7.6-21.3-7.6-33.2V1364.6c0-9.2,1.6-18,4.6-26.2
					c4.7-13,12.8-24.3,23.3-32.9c0.1-0.1,0.3-0.2,0.5-0.4l4-3c12.5-8.9,27.7-14.1,44.2-14.1h17.5l81.8,50.4l753.7,465.1l28.4,17.5
					l54.1,33.4c4,2.5,7.6,5.5,10.5,8.7v0.1C1910.8,1881.5,1910.8,1910.4,1893.9,1928.7z"/>
				<path class="st7" d="M2916.5,1364.6v1070.9c0,1.3-0.1,2.6-0.1,4c0,0.6-0.1,1.2-0.1,1.9c0,0.6-0.1,1.2-0.1,1.8
					c0,0.2-0.1,0.5-0.1,0.7c-0.1,0.4-0.1,0.8-0.2,1.2c-0.1,0.9-0.2,1.9-0.4,2.8c-0.1,0.9-0.3,1.8-0.5,2.7c0,0.1-0.1,0.3-0.1,0.4
					c-0.1,0.2-0.1,0.6-0.2,0.9c0,0.3-0.1,0.7-0.2,1c-0.1,0.4-0.2,0.9-0.3,1.3c-0.2,0.8-0.4,1.6-0.6,2.4c0,0.1-0.1,0.3-0.1,0.4
					c-0.4,1.4-0.8,2.7-1.3,4c0,0.1,0,0.1-0.1,0.2c-0.2,0.7-0.4,1.3-0.7,2c-0.2,0.6-0.4,1.1-0.7,1.7c-0.1,0.1-0.1,0.3-0.2,0.5
					c-0.7,1.7-1.5,3.4-2.4,5c-0.2,0.5-0.6,1.1-0.9,1.7c-0.3,0.6-0.6,1.1-0.9,1.6c-0.3,0.5-0.6,1.1-0.9,1.6c-0.6,1.1-1.3,2.1-2,3.1
					c-0.4,0.7-0.9,1.2-1.2,1.9c-1.1,1.4-2.1,2.7-3.2,4c-0.8,1-1.6,1.9-2.4,2.8c-0.8,0.9-1.7,1.8-2.5,2.7c-0.4,0.4-0.8,0.8-1.2,1.2
					c-0.4,0.4-0.7,0.7-1.2,1.1c-0.4,0.4-0.9,0.9-1.4,1.3c-0.1,0.1-0.3,0.2-0.4,0.4c-1.2,1.1-2.4,2-3.7,3c-0.1,0.1-0.2,0.2-0.4,0.3
					c-1,0.7-2,1.4-3,2.1c-0.4,0.2-0.7,0.5-1,0.7c-0.6,0.4-1.1,0.7-1.7,1.1c-0.4,0.3-0.9,0.6-1.4,0.8c-0.5,0.3-1,0.6-1.5,0.9
					c-3.5,2-7.1,3.7-10.9,5c-0.2,0.1-0.5,0.2-0.7,0.2c-0.2,0.1-0.6,0.2-0.8,0.2c-0.9,0.3-1.7,0.6-2.7,0.9c-1.6,0.5-3.1,0.9-4.7,1.2
					c-0.8,0.2-1.6,0.4-2.4,0.6c-0.5,0.1-1.1,0.2-1.6,0.2c-0.6,0.1-1.3,0.2-1.9,0.4h-0.2c-0.6,0.1-1.1,0.2-1.6,0.2
					c-0.2,0-0.5,0.1-0.7,0.1c-0.4,0.1-0.9,0.1-1.4,0.2c-0.2,0-0.5,0.1-0.8,0.1c-0.9,0.1-1.9,0.1-2.9,0.2c-1.4,0.1-2.7,0.1-4.1,0.1
					h-4.2l-931.2-574.6c-4-2.5-7.6-5.5-10.5-8.7v-0.1c-16.9-18.4-16.9-47.1,0-65.6v-0.1c2.9-3.2,6.5-6.2,10.5-8.7l54-33.4l28.4-17.5
					l753.8-465.1l81.8-50.4h17.5c1.9,0,3.7,0.1,5.5,0.2c0.3-0.1,0.7,0,1,0.1c1.7,0.1,3.5,0.3,5.2,0.6c0.4,0.1,0.8,0.1,1.2,0.2
					c1.5,0.2,3,0.6,4.4,0.9c0.4,0.1,0.7,0.1,1.1,0.2c1.8,0.4,3.5,0.9,5.3,1.5c1.6,0.5,3.3,1.1,4.8,1.7c2.2,0.9,4.4,1.9,6.5,3
					c1.2,0.6,2.4,1.2,3.5,1.9c2,1.1,3.9,2.4,5.7,3.7c0.1-0.1,0.1,0,0.1,0l4,3c0.2,0.1,0.4,0.2,0.5,0.4c1.1,0.8,2,1.7,2.9,2.5
					c0.7,0.6,1.4,1.3,2.1,2c2.1,2,4.1,4.2,6,6.6c0.9,1.1,1.7,2.1,2.4,3.2c3.2,4.4,6,9.2,8.1,14.3c0.6,1.4,1.2,2.8,1.7,4.2
					c0,0.1,0.1,0.1,0.1,0.2c0.9,2.3,1.6,4.7,2.2,7c0.3,1.2,0.6,2.3,0.8,3.5c0.2,0.9,0.4,1.8,0.5,2.7c0.2,0.9,0.3,1.9,0.4,2.8
					c0.2,1.1,0.3,2.2,0.4,3.3c0.1,0.9,0.2,1.9,0.2,2.9C2916.4,1361.9,2916.5,1363.3,2916.5,1364.6z"/>
				<path class="st8" d="M2916.5,2420.9v11.1c0,44.2-34.3,80-76.6,80H947.9c-42.3,0-76.6-35.8-76.6-80v-11.1l973.1-640.2
					c30.2-19.9,68.7-19.9,98.9,0L2916.5,2420.9z"/>
				<path class="st5" d="M2916.5,2424.8v10.7c0,42.3-34.3,76.6-76.6,76.6H947.9c-42.3,0-76.6-34.3-76.6-76.6v-10.7l973.1-613.4
					c30.2-19,68.7-19,98.9,0L2916.5,2424.8z"/>
				<path class="st7" d="M1797.9,921.8h-569.4c-18.3,0-33.3-15-33.3-33.3v-14.1c0-18.3,15-33.3,33.3-33.3h569.4
					c18.3,0,33.3,15,33.3,33.3v14.1C1831.1,906.9,1816.2,921.8,1797.9,921.8z"/>
			</g>
			<path class="st9" d="M1135.3,2364.7c-0.2,0-0.3,0-0.5,0c-22.7-0.9-45.5-2.9-67.9-5.8c-6.9-0.9-11.7-7.2-10.8-14.1
				c0.9-6.9,7.2-11.8,14.1-10.8c21.6,2.9,43.6,4.8,65.6,5.6c6.9,0.3,12.3,6.1,12,13C1147.5,2359.4,1142,2364.7,1135.3,2364.7z
				 M1202.2,2364.3c-6.7,0-12.2-5.2-12.5-12c-0.3-6.9,5-12.8,11.9-13.2c21.7-1,43.7-3.1,65.6-6c6.9-0.9,13.2,3.9,14.1,10.8
				c0.9,6.9-3.9,13.2-10.8,14.1c-22.6,3-45.4,5.1-67.7,6.2C1202.6,2364.3,1202.4,2364.3,1202.2,2364.3z M1002.7,2347
				c-0.9,0-1.9-0.1-2.8-0.3c-22-5.1-44.1-11.2-65.6-18.4c-6.6-2.2-10.1-9.3-8-15.9c2.2-6.6,9.3-10.2,15.9-8
				c20.8,6.9,42.1,12.9,63.3,17.7c6.8,1.6,11,8.3,9.4,15.1C1013.5,2343.1,1008.4,2347,1002.7,2347z M1334.8,2346.8
				c-5.8,0-11-4-12.3-9.9c-1.5-6.8,2.9-13.5,9.6-14.9c21.3-4.6,42.8-10.1,64-16.3c6.7-1.9,13.6,1.8,15.6,8.5
				c2,6.7-1.8,13.6-8.5,15.6c-21.8,6.4-43.9,12.1-65.8,16.8C1336.6,2346.7,1335.7,2346.8,1334.8,2346.8z M1463.3,2309.1
				c-5.1,0-9.9-3.1-11.8-8.2c-2.4-6.5,0.9-13.7,7.4-16.1c20.5-7.6,41.1-16.1,61.1-25.2c6.3-2.9,13.8-0.1,16.6,6.3
				c2.9,6.3,0.1,13.8-6.3,16.6c-20.6,9.3-41.7,18-62.7,25.9C1466.2,2308.8,1464.7,2309.1,1463.3,2309.1z M875.6,2305.1
				c-1.6,0-3.3-0.3-4.9-1c-20.3-8.7-41-18.5-61.4-29c-6.2-3.2-8.6-10.8-5.4-16.9c3.2-6.2,10.8-8.6,16.9-5.4
				c19.9,10.3,40,19.8,59.8,28.3c6.4,2.7,9.3,10.1,6.6,16.5C885.1,2302.2,880.4,2305.1,875.6,2305.1z M1585.3,2253.8
				c-4.5,0-8.8-2.4-11.1-6.6c-3.3-6.1-1-13.7,5.1-17c17.7-9.5,34.5-19.4,49.9-29.3c5.8-3.7,13.6-2,17.3,3.8c3.7,5.8,2,13.6-3.8,17.3
				c-16,10.2-33.3,20.4-51.5,30.2C1589.3,2253.3,1587.3,2253.8,1585.3,2253.8z M756.6,2243.7c-2.2,0-4.5-0.6-6.5-1.8
				c-19.4-11.8-38.5-24.3-56.8-37.2c-5.7-4-7-11.8-3-17.5c4-5.7,11.8-7,17.5-3c17.8,12.5,36.4,24.7,55.3,36.2
				c5.9,3.6,7.8,11.3,4.2,17.2C764.9,2241.5,760.8,2243.7,756.6,2243.7z M647.2,2166.3c-2.8,0-5.6-0.9-8-2.9
				c-17-14-33.3-28.6-48.5-43.3c-1.2-0.9-2.3-2-3.1-3.2c-4-4.9-3.7-12.1,0.8-16.7c4.2-4.3,10.6-4.9,15.5-2c20.3,4.6,41,8,61.4,10.3
				c6.9,0.8,11.9,7,11.1,13.9c-0.8,6.9-6.9,11.9-13.9,11.1c-7.8-0.9-15.5-1.9-23.3-3.1c5.3,4.6,10.6,9.1,16,13.6
				c5.4,4.4,6.1,12.3,1.7,17.7C654.4,2164.8,650.8,2166.3,647.2,2166.3z M730.7,2137.1c-6.9,0-12.5-5.5-12.6-12.5
				c-0.1-6.9,5.5-12.6,12.4-12.7c17.5-0.2,35.2-1.2,52.5-3c3.6-0.4,7.8-0.8,13-1.4c6.8-0.9,13.1,4.1,14,11c0.8,6.9-4.1,13.1-11,14
				c-5.3,0.6-9.6,1.1-12.8,1.4c-18.7,2-37.2,3-55.5,3.2C730.8,2137.1,730.7,2137.1,730.7,2137.1z M863.7,2121.5
				c-5.8,0-11-4.1-12.3-10c-1.4-6.8,2.9-13.4,9.7-14.9c21.9-4.6,43.3-10.1,63.8-16.5c6.7-2,13.7,1.7,15.7,8.3
				c2,6.6-1.7,13.7-8.3,15.7c-21.2,6.5-43.4,12.3-66,17C865.5,2121.5,864.6,2121.5,863.7,2121.5z M533.6,2103.8
				c-1.4,0-2.8-0.2-4.2-0.7c-21.3-7.5-42.5-16.3-63.1-26.2c-6.3-3-8.9-10.5-5.9-16.8c3-6.3,10.5-8.9,16.8-5.9
				c19.8,9.5,40.1,17.9,60.6,25.1c6.5,2.3,10,9.5,7.7,16C543.6,2100.6,538.8,2103.8,533.6,2103.8z M991.6,2081.8
				c-4.9,0-9.5-2.8-11.5-7.6c-2.7-6.4,0.2-13.8,6.6-16.5c20.7-8.9,40.3-18.8,58.3-29.5c6-3.5,13.7-1.6,17.2,4.4
				c3.5,6,1.6,13.7-4.4,17.2c-18.9,11.3-39.5,21.7-61.2,31C994.9,2081.5,993.3,2081.8,991.6,2081.8z M551.7,2072.6
				c-3.6,0-7.1-1.5-9.6-4.5c-15.1-18-28.9-36.4-40.9-54.8c-3.8-5.8-2.2-13.6,3.6-17.4c5.8-3.8,13.6-2.2,17.4,3.6
				c11.5,17.6,24.7,35.2,39.1,52.4c4.5,5.3,3.8,13.2-1.5,17.7C557.4,2071.7,554.6,2072.6,551.7,2072.6z M413.1,2046
				c-2.3,0-4.5-0.6-6.6-1.9c-19.3-11.9-38.1-25-56.1-38.9c-5.5-4.2-6.5-12.1-2.2-17.6c4.3-5.5,12.1-6.5,17.6-2.2
				c17.2,13.4,35.4,26,53.9,37.4c5.9,3.6,7.7,11.4,4.1,17.3C421.4,2043.9,417.3,2046,413.1,2046z M1106,2013c-3.6,0-7.1-1.5-9.6-4.5
				c-4.5-5.3-3.8-13.2,1.5-17.7c16.9-14.2,32.1-29.6,45.2-45.9c4.3-5.4,12.3-6.3,17.7-1.9c5.4,4.3,6.3,12.2,1.9,17.7
				c-14.1,17.5-30.4,34.1-48.6,49.4C1111.7,2012,1108.9,2013,1106,2013z M307.5,1964c-3.1,0-6.3-1.2-8.7-3.5
				c-16.4-15.8-32.1-32.6-46.6-49.9c-4.4-5.3-3.7-13.2,1.6-17.7c5.3-4.4,13.2-3.7,17.7,1.6c13.9,16.6,29,32.8,44.7,47.9
				c5,4.8,5.2,12.8,0.3,17.7C314.1,1962.8,310.8,1964,307.5,1964z M479,1960.6c-4.7,0-9.3-2.7-11.4-7.3
				c-10-21.4-17.9-43.2-23.7-64.8c-1.8-6.7,2.2-13.6,8.9-15.4c6.7-1.8,13.6,2.2,15.4,8.9c5.4,20.2,12.9,40.6,22.3,60.7
				c2.9,6.3,0.2,13.8-6.1,16.7C482.6,1960.2,480.8,1960.6,479,1960.6z M1188.8,1909.1c-1.9,0-3.8-0.4-5.6-1.3
				c-6.2-3.1-8.8-10.6-5.7-16.8c8.8-17.8,15.9-36.9,21-56.7l0.9-3.5c1.7-6.7,8.5-10.8,15.2-9.1c6.7,1.7,10.8,8.5,9.1,15.2l-1,3.8
				c-5.6,21.4-13.3,42.1-22.8,61.4C1197.9,1906.5,1193.5,1909.1,1188.8,1909.1z M221.8,1861.5c-4.1,0-8.1-2-10.5-5.6
				c-12.6-19-24.2-38.8-34.4-59c-3.1-6.2-0.7-13.7,5.5-16.9c6.2-3.2,13.7-0.7,16.9,5.5c9.9,19.4,21,38.4,33,56.6
				c3.8,5.8,2.2,13.6-3.5,17.4C226.6,1860.8,224.2,1861.5,221.8,1861.5z M445,1832c-6.6,0-12.1-5.1-12.5-11.7
				c-0.5-7.1-0.7-14.4-0.7-21.6c0-15.9,1.1-32,3.4-47.8c1-6.9,7.3-11.6,14.2-10.6c6.9,1,11.6,7.3,10.6,14.2
				c-2.1,14.6-3.2,29.5-3.2,44.2c0,6.6,0.2,13.4,0.6,20c0.4,6.9-4.8,12.9-11.7,13.3C445.6,1832,445.3,1832,445,1832z M1221.2,1780.2
				c-0.2,0-0.4,0-0.6,0c-6.9-0.3-12.3-6.2-12-13.1c0.2-4.8,0.3-9.7,0.3-14.6c0-16.5-1.2-33.2-3.6-49.9c-1-6.9,3.8-13.2,10.7-14.2
				c6.9-1,13.2,3.8,14.2,10.7c2.5,17.8,3.8,35.8,3.8,53.4c0,5.2-0.1,10.4-0.3,15.6C1233.4,1774.9,1227.9,1780.2,1221.2,1780.2z
				 M161.1,1742.4c-5.1,0-9.9-3.1-11.8-8.2c-7.9-21.1-14.7-43.1-20.3-65.2c-1.7-6.7,2.4-13.6,9.1-15.2c6.7-1.7,13.5,2.4,15.2,9.1
				c5.3,21.3,11.9,42.3,19.5,62.6c2.4,6.5-0.9,13.7-7.4,16.2C164.1,1742.1,162.6,1742.4,161.1,1742.4z M463.5,1700.3
				c-1.3,0-2.7-0.2-4-0.7c-6.6-2.2-10.1-9.4-7.8-15.9c7.2-21.1,16.3-42.4,27.2-63.2c3.2-6.1,10.8-8.5,16.9-5.3
				c6.2,3.2,8.5,10.8,5.3,16.9c-10.3,19.7-18.9,39.8-25.7,59.7C473.6,1697,468.7,1700.3,463.5,1700.3z M1202.7,1648.3
				c-5.3,0-10.2-3.4-11.9-8.7c-6.6-20.4-14.9-40.6-24.8-59.9c-3.2-6.2-0.7-13.7,5.5-16.9c6.2-3.2,13.7-0.7,16.9,5.5
				c10.5,20.5,19.4,42,26.4,63.7c2.1,6.6-1.5,13.7-8.1,15.8C1205.3,1648.1,1204,1648.3,1202.7,1648.3z M128.4,1612.8
				c-6.2,0-11.5-4.5-12.4-10.8c-3.1-22.2-5.2-45.1-6.1-67.9c-0.3-6.9,5.1-12.8,12-13c7.1-0.2,12.8,5.1,13.1,12
				c0.9,22,2.9,44,5.9,65.4c1,6.9-3.8,13.2-10.7,14.2C129.6,1612.8,129,1612.8,128.4,1612.8z M524.7,1581.6c-2.5,0-5-0.7-7.2-2.3
				c-5.7-4-7-11.8-3-17.5c13.1-18.5,27.5-36.5,42.9-53.4c4.7-5.1,12.6-5.5,17.7-0.8c5.1,4.7,5.5,12.6,0.8,17.7
				c-14.7,16.1-28.5,33.3-40.9,50.9C532.5,1579.8,528.7,1581.6,524.7,1581.6z M1142,1529.5c-3.9,0-7.7-1.8-10.1-5.1
				c-12.9-17.6-27.2-34.1-42.4-49c-5-4.8-5-12.8-0.2-17.8c4.9-5,12.8-5,17.8-0.2c16.3,15.9,31.5,33.5,45.1,52.2
				c4.1,5.6,2.9,13.5-2.7,17.5C1147.2,1528.7,1144.6,1529.5,1142,1529.5z M614.9,1483c-3.6,0-7.1-1.5-9.6-4.4
				c-4.5-5.3-3.8-13.2,1.5-17.7c17.7-15,36.2-28.7,55.2-40.8c5.9-3.7,13.6-2,17.3,3.8c3.7,5.9,2,13.6-3.8,17.3
				c-18,11.5-35.7,24.5-52.5,38.7C620.6,1482,617.7,1483,614.9,1483z M123,1479.2c-0.2,0-0.5,0-0.7,0c-6.9-0.4-12.2-6.3-11.8-13.3
				c1.3-23,3.8-45.9,7.3-67.8c1.1-6.8,7.5-11.5,14.4-10.4c6.8,1.1,11.5,7.5,10.4,14.4c-3.4,21.1-5.7,43.1-7,65.3
				C135.2,1474,129.6,1479.2,123,1479.2z M1046.5,1436.5c-2.4,0-4.9-0.7-7-2.2c-18.1-12.3-37.1-22.6-56.5-30.8
				c-6.4-2.7-9.4-10-6.7-16.4c2.7-6.4,10.1-9.4,16.4-6.7c20.9,8.8,41.4,20,60.9,33.2c5.7,3.9,7.2,11.7,3.3,17.4
				C1054.4,1434.6,1050.5,1436.5,1046.5,1436.5z M727.6,1411.6c-4.8,0-9.4-2.8-11.5-7.5c-2.8-6.3,0.1-13.8,6.4-16.5
				c21.5-9.5,43.5-17,65.4-22.3c6.7-1.6,13.5,2.5,15.2,9.2c1.6,6.7-2.5,13.5-9.2,15.2c-20.4,5-41,12-61.2,20.9
				C731,1411.3,729.3,1411.6,727.6,1411.6z M923.7,1385.4c-0.7,0-1.5-0.1-2.3-0.2c-17.2-3.1-34.8-4.7-52.4-4.7
				c-3.6-0.1-7.7,0.1-11.6,0.2c-7,0.4-12.8-5.1-13-12.1c-0.3-6.9,5.1-12.8,12.1-13c4.2-0.2,8.6-0.1,12.5-0.2
				c19.1,0,38.2,1.7,56.9,5.1c6.8,1.2,11.3,7.8,10.1,14.6C935,1381.2,929.7,1385.4,923.7,1385.4z M144.6,1347.2
				c-1.1,0-2.3-0.1-3.4-0.5c-6.7-1.9-10.6-8.8-8.7-15.5c6.1-21.8,13.5-43.5,22-64.6c2.6-6.4,9.9-9.6,16.3-7c6.4,2.6,9.6,9.9,7,16.3
				c-8.1,20.2-15.2,41.1-21.1,62C155.1,1343.6,150.1,1347.2,144.6,1347.2z M194.3,1223.3c-2,0-4-0.5-5.9-1.5
				c-6.1-3.2-8.5-10.8-5.2-17c10.6-19.9,22.4-39.6,35.1-58.5c3.9-5.8,11.7-7.3,17.4-3.4c5.8,3.9,7.3,11.7,3.4,17.4
				c-12.2,18.2-23.6,37.2-33.7,56.3C203.2,1220.8,198.8,1223.3,194.3,1223.3z M268.8,1112.2c-2.8,0-5.7-0.9-8-2.9
				c-5.3-4.4-6.1-12.3-1.7-17.7c14.4-17.4,29.8-34.3,45.9-50.4c4.9-4.9,12.9-4.9,17.8,0c4.9,4.9,4.9,12.9,0,17.8
				c-15.5,15.5-30.4,31.8-44.3,48.6C276,1110.6,272.4,1112.2,268.8,1112.2z M363.5,1017.7c-3.6,0-7.2-1.6-9.7-4.6
				c-4.4-5.3-3.7-13.3,1.7-17.7c17.4-14.3,35.7-28.1,54.4-40.9c5.7-3.9,13.5-2.4,17.5,3.3c3.9,5.7,2.4,13.5-3.3,17.5
				c-18.1,12.4-35.9,25.7-52.6,39.6C369.1,1016.7,366.3,1017.7,363.5,1017.7z M474,942.1c-4.4,0-8.7-2.3-11-6.4
				c-3.4-6-1.2-13.7,4.8-17.1c19.6-11,40.1-21.3,60.8-30.7c6.3-2.9,13.8,0,16.6,6.3c2.9,6.3,0.1,13.8-6.3,16.6
				c-20,9.1-39.8,19-58.8,29.7C478.2,941.6,476,942.1,474,942.1z M595.9,887c-5.2,0-10-3.2-11.8-8.4c-2.3-6.5,1.1-13.7,7.7-16
				c21.2-7.5,43.1-14.2,65-19.9c6.7-1.8,13.6,2.3,15.3,9c1.8,6.7-2.3,13.6-9,15.3c-21.2,5.6-42.4,12.1-63,19.3
				C598.7,886.7,597.3,887,595.9,887z"/>
			<g>
				<polygon class="st10" points="1222.2,540.3 274.8,666.7 504.5,840.9 508.1,1161.5 706,993.4 817.2,1077.3 				"/>
				<g>
					<g>
						<polygon class="st11" points="528.7,1142.1 523.5,673.7 1242.8,520.8 						"/>
						<path class="st12" d="M526.7,822.6c3.6-1.8,716.1-301.8,716.1-301.8L295.5,647.2L526.7,822.6z"/>
						<polygon class="st13" points="605.2,882.4 528.7,1142.1 856.8,863.4 						"/>
						<polygon class="st12" points="605.2,882.4 837.9,1057.8 1242.8,520.8 						"/>
					</g>
				</g>
			</g>
			<path class="st10" d="M3095.1,1403.5c-0.8-12.1-11.3-21.3-23.3-20.5l-846.6,53.8c-12.1,0.8-21.3,11.3-20.5,23.3l21.9,343.9
				c0.8,12.1,11.3,21.3,23.3,20.5l846.6-53.8c12.1-0.8,21.3-11.3,20.5-23.3L3095.1,1403.5z"/>
			<g>
				<path class="st2" d="M3117.9,1739.1l-846.6,53.8c-12.1,0.8-22.5-8.5-23.3-20.5l-21.9-343.9c-0.8-12.1,8.5-22.5,20.5-23.3
					l846.6-53.8c12.1-0.8,22.5,8.5,23.3,20.5l21.9,343.9C3139.1,1727.8,3129.9,1738.3,3117.9,1739.1z"/>
				<path class="st7" d="M3028.3,1454.7l-369.4,23.5c-9.5,0.6-17.8-6.7-18.4-16.2l-0.1-0.9c-0.6-9.5,6.7-17.8,16.2-18.4l369.4-23.5
					c9.5-0.6,17.8,6.7,18.4,16.2l0.1,0.9C3045.1,1445.8,3037.8,1454.1,3028.3,1454.7z"/>
				<path class="st3" d="M3033.2,1532.2l-369.4,23.5c-9.5,0.6-17.8-6.7-18.4-16.2l-0.1-0.9c-0.6-9.5,6.7-17.8,16.2-18.4l369.4-23.5
					c9.5-0.6,17.8,6.7,18.4,16.2l0.1,0.9C3050,1523.3,3042.7,1531.6,3033.2,1532.2z"/>
				<path class="st3" d="M3038.1,1609.8l-369.4,23.5c-9.5,0.6-17.8-6.7-18.4-16.2l-0.1-0.9c-0.6-9.5,6.7-17.8,16.2-18.4l369.4-23.5
					c9.5-0.6,17.8,6.7,18.4,16.2l0.1,0.9C3055,1600.9,3047.7,1609.1,3038.1,1609.8z"/>
				<path class="st3" d="M3043.1,1687.3l-369.4,23.5c-9.5,0.6-17.8-6.7-18.4-16.2l-0.1-0.9c-0.6-9.5,6.7-17.8,16.2-18.4l369.4-23.5
					c9.5-0.6,17.8,6.7,18.4,16.2l0.1,0.9C3059.9,1678.4,3052.6,1686.7,3043.1,1687.3z"/>
				<g>
					
						<ellipse transform="matrix(0.7071 -0.7071 0.7071 0.7071 -408.8627 2188.3113)" class="st3" cx="2437.1" cy="1587.7" rx="163.1" ry="163.1"/>
					<g>
						<path class="st14" d="M2522.9,1688.1c-8.4,7.4-17.7,13.7-27.9,18.7c-5.1,2.6-10.5,4.8-16,6.6c-5.8,2-11.9,3.6-18.1,4.7
							c-5,0.9-10.2,1.6-15.4,1.9c-5.2,0.3-10.4,0.3-15.6,0.1c-23.9-1.3-46.3-9.2-65.2-22c8.4-18.1,23.8-32.5,43-39.3l0,0
							c0,0,0,0,0,0c3.3-1.2,6.7-2.1,10.2-2.8c0.1,0,0.3-0.1,0.4-0.1c3.1-0.6,6.2-1,9.4-1.2l27.1-1.7c3.2-0.2,6.4-0.2,9.5,0
							c0.1,0,0.3,0,0.4,0c3.6,0.2,7,0.7,10.5,1.5l0,0l0,0C2495.1,1658.8,2512.3,1671.2,2522.9,1688.1z"/>
						<path class="st15" d="M2509.3,1527l5.5,87.2c1.2,19.2-13.3,35.8-32.6,37l-82,5.2c-19.2,1.2-35.8-13.4-37-32.6l-5.5-87.2
							c-4.9-77.5,71.1-78.8,71.1-78.8s19.7-2.2,39.6,6c17.8,7.3,35.9,22.9,40.2,55.8C2508.9,1522,2509.1,1524.5,2509.3,1527z"/>
						<path class="st16" d="M2463.9,1639.6l1.6,25.7c0.7,10.9-9.3,20.4-22.2,21.3c-12.9,0.8-24-7.4-24.7-18.3l-1.6-25.7
							c-0.3-4.5,1.2-8.8,4.1-12.3c0.6-0.8,1.4-1.6,2.2-2.3c1.5-1.4,3.2-2.6,5.1-3.6c3.2-1.7,6.9-2.8,10.8-3c4-0.3,7.7,0.3,11.1,1.6
							c2,0.8,3.9,1.8,5.5,3c0.1,0.1,0.2,0.1,0.3,0.2c0.8,0.6,1.5,1.2,2.2,1.9C2461.6,1631,2463.6,1635.1,2463.9,1639.6z"/>
						<path class="st17" d="M2498.4,1547.5l2.4,37.4c1.7,26.3-13.7,49.8-36.5,59.9l0.6,9.9c-6.4,2.8-13.3,4.6-20.7,5l-5,0.3
							c-7.3,0.5-14.5-0.4-21.1-2.4l-0.6-9.9c-23.9-7.1-42.1-28.5-43.8-54.8l-2.4-37.4c-1-17.5,5.5-33.9,16.8-45.7
							c10.3-10.8,24.4-17.9,40.4-18.9l5-0.3c14.3-0.9,27.8,3.2,38.8,10.9c0,0,0,0,0,0C2486.9,1511.8,2497.1,1528.4,2498.4,1547.5z"
							/>
						<path class="st16" d="M2497.7,1538l3,46.9c0.8,12.8-2.4,25-8.6,35.3c0,0,0,0,0,0c-1.4,2.4-3,4.7-4.8,6.8
							c-3.4,4.2-7.3,8-11.7,11.2c-3.5,2.6-7.3,4.8-11.4,6.6c-6.4,2.8-13.4,4.6-20.7,5l-5,0.3c-7.3,0.5-14.5-0.4-21.1-2.4
							c-23.9-7.1-42.1-28.5-43.8-54.8l-3-46.7c0-0.6-0.1-1.3-0.1-2c-0.6-17.8,6.5-34.3,18.5-46c1.9-1.8,3.9-3.6,6-5.2
							c9.2-6.9,20.4-11.3,32.7-12.1l5-0.3c13.8-0.9,26.9,3,37.7,10.2c5.7,3.8,10.8,8.6,15,14.1c1.7,2.2,3.3,4.6,4.7,7.1
							C2494.4,1519.8,2497.2,1528.6,2497.7,1538z"/>
						<g>
							<path class="st16" d="M2523.8,1561.1c0.9,13.5-9.4,25.2-22.9,26l-3.1-48.9c3.4-0.2,6.7,0.3,9.7,1.3c0,0,0,0,0,0
								C2516.5,1542.8,2523.1,1551,2523.8,1561.1z"/>
							<path class="st18" d="M2514.5,1561.7c0.5,8.4-5.8,15.6-14.2,16.1l-1.9-30.3C2506.7,1547,2513.9,1553.4,2514.5,1561.7z"/>
						</g>
						<path class="st19" d="M2475.3,1654.5L2475.3,1654.5l-14.3,63.6c-5,0.9-10.2,1.6-15.4,1.9c-5.2,0.3-10.4,0.3-15.6,0.1
							l-22.3-61.3l0,0l12.9-0.8l0.5,0.4l21.7,19.8l19.1-22.4l0.4-0.5L2475.3,1654.5z"/>
						<g>
							<path class="st16" d="M2370.6,1546.3l3.1,48.9c-13.5,0.9-25.1-9.4-26-22.9c-0.7-11.6,6.7-21.9,17.4-25
								c0.4-0.1,0.7-0.2,1.1-0.3c0.2,0,0.4-0.1,0.6-0.1C2368.1,1546.6,2369.4,1546.4,2370.6,1546.3z"/>
							<path class="st18" d="M2357.1,1571.7c0.5,8.4,7.7,14.7,16.1,14.2l-1.9-30.3C2362.9,1556.2,2356.5,1563.4,2357.1,1571.7z"/>
						</g>
						<path class="st19" d="M2495,1706.8c-5.1,2.6-10.5,4.8-16,6.6l-0.4-5.6L2495,1706.8z"/>
						<polygon class="st20" points="2442.8,1678.3 2461.8,1690 2475.3,1654.5 						"/>
						<polygon class="st21" points="2475.3,1654.5 2461.4,1688.8 2442.8,1678.3 2462.3,1655.4 2464.9,1652.4 						"/>
						<polygon class="st20" points="2407.7,1658.8 2425.3,1692.3 2442.8,1678.3 						"/>
						<polygon class="st21" points="2442.8,1678.3 2425.7,1691.1 2407.7,1658.8 2417.7,1655.4 2420.6,1658 						"/>
						<path class="st15" d="M2509.2,1525.4c-45.4,6.2-43.6-35.3-40.2-55.8C2486.9,1476.9,2504.9,1492.5,2509.2,1525.4z"/>
						<path class="st15" d="M2483.7,1491c-1.4,2.6-15.3,31.9-43.6,33.7c-28.3,1.8-72.1,21.6-71.7,49.9s-40.9-83.7,44.4-98.1
							C2498.1,1462.2,2483.7,1491,2483.7,1491z"/>
					</g>
				</g>
			</g>
			<path class="st10" d="M3171,1337.5l-81.3-334.9c-2.8-11.7-14.8-19-26.5-16.2l-824.4,200c-11.7,2.8-19,14.8-16.2,26.5l81.3,334.9
				c2.8,11.7,14.8,19,26.5,16.2l824.4-200C3166.6,1361.2,3173.9,1349.2,3171,1337.5z"/>
			<g>
				<path class="st9" d="M3173.4,1333.7l-824.4,200c-11.7,2.8-23.7-4.4-26.5-16.2l-81.3-334.9c-2.8-11.7,4.4-23.7,16.2-26.5
					l824.4-200c11.7-2.8,23.7,4.4,26.5,16.2l81.3,334.9C3192.4,1318.9,3185.1,1330.8,3173.4,1333.7z"/>
				<g>
					
						<ellipse transform="matrix(0.7071 -0.7071 0.7071 0.7071 -196.5198 2131.9636)" class="st22" cx="2475.2" cy="1303.2" rx="161.5" ry="161.5"/>
					<g>
						<path class="st9" d="M2507.7,1445.6c-0.9,0.2-1.8,0.4-2.6,0.5l0,0c-27.2,5.7-54.3,3-78.6-6.5c4.7-20.4,17.9-38.5,36.4-49l0,0
							c3.1-1.8,6.3-3.3,9.6-4.6c3-1.2,6.2-2.2,9.5-3l26.6-6.5c3.2-0.8,6.6-1.3,9.8-1.7l0,0c3.5-0.4,7.1-0.5,10.6-0.4
							c15,0.6,29.4,5.7,41.3,14.3c4.5,3.2,8.7,7.1,12.4,11.3c-16.6,19.5-38.7,34.6-64.7,42.6c-1.2,0.4-2.4,0.7-3.6,1
							c-0.2,0.1-0.4,0.1-0.6,0.2l0,0c-0.2,0.1-0.5,0.2-0.8,0.2c-0.2,0.1-0.4,0.2-0.7,0.2c-0.9,0.3-1.8,0.5-2.8,0.8l-0.7,0.2
							l-0.8,0.2l-0.2,0.1L2507.7,1445.6z"/>
						<path class="st23" d="M2400.4,1293c0,0-30.2-87.9,18.6-101.6c48.8-13.7,65.8-31,78.6-29.7c12.8,1.3,41.6,80.8,42.4,97.5
							C2540.6,1275.8,2400.4,1293,2400.4,1293z"/>
						<path class="st24" d="M2515.2,1361.7l6.1,25.2c2.6,10.7-5.6,21.9-18.3,25c-12.6,3.1-25.1-3.2-27.7-13.8l-6.1-25.2
							c-1.1-4.4-0.3-8.9,1.9-12.9c0.5-0.9,1.1-1.8,1.7-2.7c1.2-1.7,2.7-3.2,4.5-4.5c2.9-2.2,6.3-3.9,10.2-4.9
							c3.9-0.9,7.7-1,11.3-0.3c2.1,0.4,4.2,1.1,6,2c0.1,0,0.2,0.1,0.3,0.1c0.9,0.4,1.7,0.9,2.5,1.5
							C2511.4,1353.7,2514.2,1357.3,2515.2,1361.7z"/>
						<path class="st25" d="M2533.3,1264.4l8.9,36.6c6.2,25.8-4.9,51.8-25.7,65.8l2.3,9.7c-5.8,3.9-12.4,6.9-19.6,8.6l-4.9,1.2
							c-7.2,1.7-14.4,2.1-21.4,1.3l-2.3-9.7c-25-2.9-46.8-21-53-46.7l-8.9-36.6c-4.1-17.2-0.4-34.6,8.7-48.3
							c8.3-12.5,21.1-22,36.7-25.8l4.9-1.2c14-3.4,28.2-1.7,40.4,4c0,0,0,0,0,0C2515.8,1231,2528.7,1245.7,2533.3,1264.4z"/>
						<path class="st24" d="M2531,1255.1l11.2,46c2.8,11.5,2.1,23.1-1.3,33.6c-0.5,1.7-1.2,3.3-1.9,4.9c-0.8,2-1.7,3.8-2.7,5.7
							c-4.7,8.6-11.5,16-19.7,21.6c-5.9,3.9-12.5,6.9-19.7,8.6l-4.9,1.2c-7.2,1.7-14.5,2.1-21.4,1.3c-25-2.9-46.8-21-53-46.7
							l-11.6-47.8c-3.7-17.5,0.5-35.1,10.3-48.8c1.6-2.2,3.3-4.3,5.1-6.2c7.9-8.5,18.3-14.8,30.4-17.8l4.9-1.2
							c9.4-2.3,18.8-2.3,27.7-0.2c1.8,0.4,3.5,0.8,5.3,1.4c2.1,0.7,4.2,1.4,6.2,2.3C2512.8,1220.7,2526.3,1235.7,2531,1255.1z"/>
						<g>
							<path class="st26" d="M2560.9,1273.5c3.2,13.3-4.9,26.6-18.2,29.8l-11.6-48c3.3-0.8,6.7-0.9,9.8-0.4c0,0,0,0,0,0
								C2550.4,1256.5,2558.5,1263.6,2560.9,1273.5z"/>
							<path class="st25" d="M2551.8,1275.7c2,8.2-3,16.5-11.3,18.5l-7.2-29.7C2541.5,1262.5,2549.8,1267.5,2551.8,1275.7z"/>
						</g>
						<g>
							<path class="st26" d="M2406.4,1285.6l11.6,48c-13.2,3.2-26.6-4.9-29.8-18.2c-2.8-11.4,2.9-22.9,12.9-27.9
								c0.3-0.2,0.7-0.3,1.1-0.5c0.2-0.1,0.4-0.2,0.6-0.2C2404,1286.3,2405.2,1285.9,2406.4,1285.6z"/>
							<path class="st25" d="M2397.4,1313.2c2,8.2,10.3,13.2,18.5,11.3l-7.2-29.7C2400.4,1296.7,2395.4,1305,2397.4,1313.2z"/>
						</g>
						<path class="st27" d="M2531,1255.1l11.2,46c2.8,11.5,2.1,23.1-1.3,33.6c-0.5,1.7-1.2,3.3-1.9,4.9
							c-9.2-89.7-26.8-98.8-47.3-93.6c-22.1,5.5-33.8-20.5-33.8-20.5l31.7-14.6c2.1,0.7,4.2,1.4,6.2,2.3
							C2512.8,1220.7,2526.3,1235.7,2531,1255.1z"/>
						<path class="st28" d="M2525.5,1403.9l8.2,8.6l-15.6,30.4c-1.2,0.4-2.4,0.7-3.6,1c-0.2,0.1-0.4,0.1-0.6,0.2l0,0
							c-0.2,0.1-0.5,0.2-0.8,0.2l7.3-46.6l0-0.1l1.2-7.7l0-0.1l0.1-0.8l-3-12.4l18,18.5l-10.8,8.4L2525.5,1403.9z"/>
						<path class="st2" d="M2509,1445.3l0.7-0.2c1-0.2,1.9-0.5,2.8-0.8c0.3,0,0.5-0.1,0.7-0.2c0.3,0,0.5-0.1,0.8-0.2l0,0l1.8-5.5
							l9.5-29.6l-1.9-7.7l4.2-6.7l-5.3-9.7c0,0-0.2,0.9-0.9,2.5l-0.1,0.1l0,0.1c-1.6,4.5-5.7,13.9-13.1,20.4
							c-1.6,1.4-3.3,2.7-5.4,3.7c-3.1-0.1-6.1-0.7-8.8-1.6c-8.6-2.7-15.4-8.4-18.6-11.5l-0.1-0.1c-1.3-1.2-1.9-1.9-1.9-1.9
							l-0.2,11.1l6.8,4l1.9,7.7l18.9,18.9l7.1,7.2l0.1,0L2509,1445.3z"/>
						<path class="st23" d="M2526.1,1403.4l7.6,9l-19.2,31.4c-0.2,0.1-0.4,0.1-0.6,0.2l0,0c-0.2,0.1-0.5,0.2-0.8,0.2
							c-0.2,0.1-0.4,0.2-0.7,0.2l7.1-44.7l0,0l1.9-12l0-0.1l0.1-0.1l-3-12.4l18.4,20.1l-11.7,7.2L2526.1,1403.4z"/>
						<path class="st28" d="M2507.7,1445.6c-0.9,0.2-1.8,0.4-2.6,0.5l0,0l-28.9-19.7l3.4-11.4l-0.7-0.1l-13.4-2.5l7.5-24.7l2.6,10.8
							l0.4,1.6l0.1,0.1l0.2,0.3l0.1,0.1l4.8,6.5l0,0l28,38.2l-0.8,0.2l-0.2,0.1L2507.7,1445.6z"/>
						<polygon class="st23" points="2507.7,1445.6 2476.1,1426.4 2478.8,1414.9 2479.1,1413.4 2465.4,1412.4 2472.5,1386.1 
							2472.9,1387.7 2475.5,1398.5 2475.6,1398.6 2482.8,1408.5 2482.9,1408.5 2509.7,1445.2 2509,1445.3 2508.2,1445.5 
							2508,1445.6 						"/>
						<path class="st23" d="M2491.7,1201.2c0,0-32.1-1.8-37.9-0.4c-5.8,1.4-13.1,3.9-23.9,9.5c-10.8,5.6-25.1,22.2-25.1,22.2l-1.8,7
							c-1.3,2.3-2.7,4.9-2.6,5.5c0.1,0.6,0.1,2.6,0.1,4.4l-1.4,5.8c0.3-0.2,1.2-0.7,2.2-1.4l2.7,4.5c0.2-0.1,3.8-10.1,12.9-18.2
							c11.9-7.9,29.3-13.3,44-7.2c26.7,11.1,66.6-8.8,66.6-8.8L2491.7,1201.2z"/>
					</g>
				</g>
				<path class="st29" d="M3035,1065.8l-359.7,87.3c-9.3,2.3-18.7-3.5-21-12.8l-0.2-0.8c-2.3-9.3,3.5-18.7,12.8-21l359.7-87.3
					c9.3-2.3,18.7,3.5,21,12.8l0.2,0.8C3050,1054.1,3044.3,1063.6,3035,1065.8z"/>
				<path class="st22" d="M3053.3,1141.3l-359.7,87.3c-9.3,2.3-18.7-3.5-21-12.8l-0.2-0.8c-2.3-9.3,3.5-18.7,12.8-21l359.7-87.3
					c9.3-2.3,18.7,3.5,21,12.8l0.2,0.8C3068.3,1129.6,3062.6,1139.1,3053.3,1141.3z"/>
				<path class="st22" d="M3071.6,1216.8l-359.7,87.3c-9.3,2.3-18.7-3.5-21-12.8l-0.2-0.8c-2.3-9.3,3.5-18.7,12.8-21l359.7-87.3
					c9.3-2.3,18.7,3.5,21,12.8l0.2,0.8C3086.6,1205.1,3080.9,1214.5,3071.6,1216.8z"/>
				<path class="st22" d="M3089.9,1292.3l-359.7,87.3c-9.3,2.3-18.7-3.5-21-12.8l-0.2-0.8c-2.3-9.3,3.5-18.7,12.8-21l359.7-87.3
					c9.3-2.3,18.7,3.5,21,12.8l0.2,0.8C3104.9,1280.6,3099.2,1290,3089.9,1292.3z"/>
			</g>
			<path class="st12" d="M2510.6,2396.9c-6,0-11.9-0.1-17.9-0.4c-6.9-0.3-12.3-6.1-12-13.1c0.3-6.9,6.2-12.3,13.1-12
				c21.5,0.9,43.2,0.1,64.9-2.4c6.9-0.8,13.1,4.2,13.9,11c0.8,6.9-4.2,13.1-11,13.9C2544.5,2395.9,2527.4,2396.9,2510.6,2396.9z
				 M2426.9,2388.3c-0.9,0-1.7-0.1-2.6-0.3c-22.4-4.7-44.6-11.4-66-19.9c-6.4-2.6-9.6-9.8-7.1-16.3c2.6-6.5,9.8-9.6,16.3-7.1
				c20.1,7.9,40.9,14.2,62,18.7c6.8,1.4,11.1,8.1,9.7,14.9C2437.9,2384.2,2432.7,2388.3,2426.9,2388.3z M2625.8,2381.7
				c-5.6,0-10.7-3.7-12.1-9.4c-1.8-6.7,2.3-13.6,9-15.3c20.7-5.4,41.5-12.4,61.9-20.7c6.4-2.6,13.8,0.5,16.4,6.9
				c2.6,6.4-0.5,13.8-6.9,16.4c-21.4,8.7-43.3,16-65,21.7C2627.9,2381.5,2626.9,2381.7,2625.8,2381.7z M2302.9,2339.5
				c-2.2,0-4.4-0.6-6.4-1.8c-19.2-11.4-38.2-24.7-56.3-39.4c-5.4-4.4-6.2-12.3-1.9-17.7c4.4-5.4,12.3-6.2,17.7-1.9
				c17.2,13.9,35.2,26.5,53.4,37.3c6,3.5,7.9,11.3,4.4,17.2C2311.3,2337.3,2307.2,2339.5,2302.9,2339.5z M2749.7,2331.5
				c-4.4,0-8.7-2.3-11-6.5c-3.4-6.1-1.2-13.7,4.9-17.1c18.9-10.5,37.6-22.3,55.4-35c5.6-4,13.5-2.7,17.5,2.9
				c4,5.6,2.7,13.5-2.9,17.5c-18.6,13.3-38,25.6-57.8,36.5C2753.8,2331,2751.8,2331.5,2749.7,2331.5z M2198.8,2255.7
				c-3.3,0-6.6-1.3-9.1-3.9c-15.4-16-30.4-33.5-44.5-51.9c-4.2-5.5-3.2-13.4,2.3-17.6c5.5-4.2,13.4-3.2,17.6,2.3
				c13.6,17.7,27.9,34.4,42.7,49.8c4.8,5,4.6,13-0.4,17.8C2205.1,2254.6,2202,2255.7,2198.8,2255.7z M2858.4,2253.9
				c-3.4,0-6.9-1.4-9.3-4.1c-4.6-5.2-4.2-13.1,0.9-17.7c16.3-14.7,31.8-30.4,46-46.6c4.6-5.2,12.5-5.7,17.7-1.2
				c5.2,4.6,5.7,12.5,1.2,17.7c-14.8,16.9-31,33.3-48.1,48.7C2864.4,2252.8,2861.4,2253.9,2858.4,2253.9z M2901.6,2179.3
				c-6.4,0-11.9-4.8-12.5-11.3c-0.7-6.9,4.4-13,11.3-13.7c12-1.2,24.1-3.1,36.2-5.8c-3.3-4.2-3.7-10.1-0.5-14.8
				c12.4-18.5,23.3-37.4,32.4-56.4c3-6.3,10.5-8.9,16.7-5.9c6.3,3,8.9,10.5,5.9,16.7c-8.7,18.2-19,36.4-30.6,54.1
				c0.9-0.3,1.9-0.6,2.8-0.9c6.7-2,13.7,1.6,15.7,8.2c2.1,6.6-1.6,13.7-8.2,15.7c-22.4,7-45.3,11.7-68,13.9
				C2902.4,2179.2,2902,2179.3,2901.6,2179.3z M2834.8,2178.3c-0.5,0-1.1,0-1.6-0.1c-22-2.8-44.7-8.1-67.5-15.8
				c-6.6-2.2-10.1-9.3-7.9-15.9c2.2-6.6,9.3-10.1,15.9-7.9c21.3,7.1,42.4,12.1,62.8,14.7c6.9,0.9,11.7,7.2,10.9,14.1
				C2846.4,2173.7,2841,2178.3,2834.8,2178.3z M2117.1,2149.8c-4.2,0-8.3-2.1-10.7-5.9c-12.2-19.5-23.4-39.6-33.3-59.6
				c-3.1-6.2-0.6-13.7,5.7-16.8c6.2-3.1,13.7-0.5,16.8,5.7c9.6,19.3,20.4,38.6,32.2,57.5c3.7,5.9,1.9,13.6-4,17.3
				C2121.6,2149.2,2119.3,2149.8,2117.1,2149.8z M3028.8,2140c-4.5,0-8.8-2.4-11.1-6.7c-3.3-6.1-0.9-13.7,5.2-17
				c18.8-10,37.1-21.8,54.4-35.2c5.5-4.2,13.4-3.2,17.6,2.3c4.2,5.5,3.2,13.4-2.3,17.6c-18.5,14.2-37.9,26.8-57.9,37.5
				C3032.8,2139.5,3030.7,2140,3028.8,2140z M2708.3,2136.4c-2,0-4.1-0.5-6-1.5c-20.8-11.3-40.2-24.3-57.6-38.5
				c-5.4-4.4-6.1-12.3-1.7-17.7c4.4-5.4,12.3-6.1,17.7-1.7c16.1,13.3,34.2,25.3,53.6,35.9c6.1,3.3,8.4,10.9,5.1,17
				C2717,2134,2712.7,2136.4,2708.3,2136.4z M3134.5,2058.8c-3.1,0-6.2-1.1-8.6-3.5c-5-4.8-5.2-12.7-0.5-17.7
				c14.8-15.5,28.6-32.5,41.2-50.3c4-5.7,11.8-7,17.5-3c5.7,4,7,11.8,3,17.5c-13.3,18.9-28,36.7-43.6,53.2
				C3141.2,2057.5,3137.9,2058.8,3134.5,2058.8z M2606.1,2051.3c-3.8,0-7.5-1.7-10-5c-14.6-19.3-26.2-39.9-34.3-61.4
				c-2.5-6.5,0.8-13.7,7.3-16.2c6.5-2.4,13.7,0.8,16.2,7.3c7.3,19.2,17.6,37.7,30.8,55.1c4.2,5.5,3.1,13.4-2.4,17.6
				C2611.5,2050.4,2608.8,2051.3,2606.1,2051.3z M3003.3,2032.7c-1.1,0-2.2-0.1-3.3-0.4c-6.7-1.8-10.6-8.7-8.8-15.4
				c5.9-21.4,9.3-42.7,10.3-63.2c0.3-6.9,6-12.2,13.1-12c6.9,0.3,12.3,6.2,12,13.1c-1,22.4-4.8,45.5-11.2,68.7
				C3013.9,2029,3008.9,2032.7,3003.3,2032.7z M3211.6,1949.9c-1.9,0-3.9-0.4-5.8-1.4c-6.2-3.2-8.6-10.8-5.4-16.9
				c9.9-19.1,18.6-39.3,26.1-59.8c2.4-6.5,9.5-9.9,16.1-7.6c6.5,2.4,9.9,9.5,7.6,16.1c-7.8,21.6-17,42.7-27.4,62.8
				C3220.6,1947.4,3216.2,1949.9,3211.6,1949.9z M2560,1927.8c-6.7,0-12.2-5.2-12.5-12c-0.2-3.9-0.3-7.7-0.3-11.6
				c0-19.2,2.3-38.8,6.9-58.3c1.6-6.8,8.4-11,15.1-9.4c6.8,1.6,11,8.3,9.4,15.1c-4.1,17.6-6.2,35.3-6.2,52.6c0,3.5,0.1,6.9,0.3,10.4
				c0.3,6.9-5,12.8-11.9,13.2C2560.4,1927.8,2560.2,1927.8,2560,1927.8z M3008.7,1900.2c-5.9,0-11.1-4.1-12.3-10.1
				c-4.1-20.5-10.4-41.3-18.8-61.7c-2.6-6.4,0.4-13.8,6.9-16.4c6.4-2.6,13.8,0.4,16.4,6.9c9,21.9,15.8,44.2,20.2,66.3
				c1.4,6.8-3.1,13.4-9.9,14.8C3010.4,1900.1,3009.6,1900.2,3008.7,1900.2z M2589.4,1798.6c-1.9,0-3.9-0.4-5.7-1.4
				c-6.2-3.1-8.6-10.7-5.5-16.9c10.6-20.9,23.6-40.4,38.5-58.1c4.5-5.3,12.4-6,17.7-1.5c5.3,4.5,6,12.4,1.5,17.7
				c-13.7,16.2-25.6,34.2-35.3,53.3C2598.3,1796.1,2593.9,1798.6,2589.4,1798.6z M2958.5,1776.7c-4.1,0-8.2-2-10.6-5.8
				c-12-18.8-25.4-35.7-39.9-50.4c-4.9-4.9-4.8-12.9,0.1-17.8c4.9-4.9,12.9-4.8,17.8,0.1c15.7,15.9,30.2,34.2,43.1,54.5
				c3.7,5.8,2,13.6-3.8,17.3C2963.2,1776.1,2960.8,1776.7,2958.5,1776.7z M2675.4,1697.6c-3.9,0-7.8-1.9-10.3-5.3
				c-4-5.7-2.6-13.5,3-17.5c20.3-14.3,41.6-24.9,63.4-31.3c6.6-2,13.6,1.8,15.6,8.4c2,6.6-1.8,13.6-8.4,15.6
				c-19.2,5.7-38.1,15.1-56.1,27.8C2680.4,1696.8,2677.9,1697.6,2675.4,1697.6z M2864.2,1683.4c-2.1,0-4.2-0.5-6.1-1.6
				c-19-10.7-38.7-17.3-58.4-19.8c-6.9-0.9-11.8-7.1-10.9-14s7.1-11.8,14-10.9c23,2.9,45.7,10.5,67.6,22.8c6.1,3.4,8.2,11,4.8,17.1
				C2872.9,1681.1,2868.6,1683.4,2864.2,1683.4z"/>
			<g>
				
					<ellipse transform="matrix(0.7071 -0.7071 0.7071 0.7071 -260.2812 2817.6467)" class="st10" cx="3271.1" cy="1723" rx="244.7" ry="244.7"/>
				<g>
					<circle class="st9" cx="3323.1" cy="1693.8" r="244.7"/>
					<g>
						<path class="st2" d="M3366.7,1622.9l5.8-19.2l46.4,3.3l-35.7,124.2c-2.2,7.9-3.4,13.1-3.6,15.7c-0.2,2.7,0.3,4.9,1.6,6.5
							c1.2,1.6,2.8,2.5,4.7,2.6c6.3,0.5,14.8-3.1,25.4-10.7c10.6-7.6,20.2-18.2,28.6-31.9c8.5-13.7,13.3-29,14.5-45.9
							c1-14.1-0.7-27.5-5.2-40.3s-11.4-24.1-20.8-34c-9.4-9.9-21.4-17.9-35.8-24.1c-14.5-6.2-31.1-10-49.8-11.3
							c-19.1-1.4-36.8-0.1-53.1,3.7c-16.3,3.9-30.8,10-43.6,18.5c-12.7,8.5-23.6,19.3-32.7,32.4c-8,11.5-14.4,24.3-19.2,38.6
							c-4.8,14.3-7.7,29-8.8,44.1c-1.4,20.2,1.3,38.9,8.1,56.2c6.8,17.3,17.5,32.1,32,44.5c14.5,12.4,32.4,21.8,53.8,28
							c21.4,6.3,45.8,9,73.3,8.1c21.9-1,40.6-4.7,56.2-10.9c15.6-6.2,29.1-15.5,40.4-27.9l37.5,2.7c-7,12.1-15.7,22.7-26.2,31.9
							c-10.5,9.2-22.5,16.6-36.2,22.4c-13.6,5.8-28.7,9.9-45.3,12.3c-16.6,2.4-34.4,2.9-53.7,1.5c-28.8-2.1-54.6-7.7-77.1-16.9
							c-22.6-9.2-41.2-21.5-56-36.9c-14.8-15.4-25.5-33.2-32.2-53.6c-6.7-20.3-9.2-42.5-7.5-66.4c1.8-25,7.6-48,17.5-69.1
							c9.9-21.1,23.2-39.1,40-54c16.8-14.9,36.8-26,60-33.5c23.2-7.4,48.4-10.2,75.6-8.2c22.3,1.6,42.5,6.3,60.6,14.1
							c18.1,7.8,33.4,18.3,45.8,31.5c12.4,13.1,21.5,28.3,27.3,45.5c5.8,17.2,8,35.9,6.5,56.1c-1.1,15.7-5,30.9-11.7,45.6
							c-6.7,14.7-15.7,27.6-27.1,38.9c-11.4,11.3-24.4,19.9-39.1,25.9c-14.7,6-30.2,8.4-46.7,7.2c-9.5-0.7-16.8-2.8-21.8-6.4
							c-5-3.6-8.2-9-9.5-16.1c-10.9,9.4-23.1,14.9-36.5,16.6c-13.4,1.7-26.2-0.5-38.3-6.4c-12.1-6-21.5-15.3-28.3-27.9
							c-6.8-12.6-9.6-27.8-8.3-45.5c1.3-18.4,6.6-36.2,15.7-53.5c9.2-17.3,21.5-31.1,36.9-41.4c15.4-10.3,32.3-14.9,50.7-13.5
							C3343,1597.3,3357.9,1606.4,3366.7,1622.9z M3263.9,1707.2c-1,14.1,1.2,25.1,6.5,33s12.7,12.2,22.2,12.9
							c11,0.8,21-2.9,30-11.1s16.2-18.9,21.5-32c5.3-13.1,8.4-26,9.3-38.5c0.4-6.2,0.1-11.9-1-17c-1.1-5.1-3-9.6-5.6-13.6
							c-2.6-4-5.9-7-9.8-9.3c-3.9-2.2-8.4-3.5-13.6-3.9c-10.3-0.7-19.9,2.6-28.7,10.1c-8.8,7.4-15.9,17.4-21.3,30
							C3268.1,1680.3,3264.9,1693.4,3263.9,1707.2z"/>
					</g>
				</g>
			</g>
		</g>
		<path class="st30" d="M2604,337.4l26.4-13.9c6-3.1,13,1.9,11.8,8.6l-5.1,29.4c-0.5,2.6,0.4,5.4,2.3,7.2l21.4,20.9
			c4.8,4.7,2.2,13-4.5,13.9l-29.6,4.3c-2.7,0.4-5,2.1-6.1,4.5l-13.2,26.8c-3,6.1-11.7,6.1-14.6,0l-13.2-26.8
			c-1.2-2.4-3.5-4.1-6.1-4.5l-29.6-4.3c-6.7-1-9.4-9.2-4.5-13.9l21.4-20.9c1.9-1.9,2.8-4.6,2.3-7.2l-5.1-29.4
			c-1.1-6.7,5.9-11.8,11.8-8.6l26.4,13.9C2598.7,338.7,2601.6,338.7,2604,337.4z"/>
		<g>
			<path class="st30" d="M453.2,2464.1c-38.8,0-70.3-31.5-70.3-70.3s31.5-70.3,70.3-70.3s70.3,31.5,70.3,70.3
				S491.9,2464.1,453.2,2464.1z M453.2,2342.9c-28.1,0-51,22.9-51,51c0,28.1,22.9,51,51,51s51-22.9,51-51
				C504.1,2365.7,481.3,2342.9,453.2,2342.9z"/>
			
				<ellipse transform="matrix(0.7071 -0.7071 0.7071 0.7071 -1559.9463 1021.5795)" class="st30" cx="453.2" cy="2393.8" rx="35.8" ry="35.8"/>
		</g>
		<circle class="st30" cx="1906.6" cy="2781.5" r="32.3"/>
		<circle class="st30" cx="1370.2" cy="215" r="32.3"/>
	</g>
</g>
</svg>
